# xmcd CD database file
#
# Track frame offsets:
#	150
#	21762
#	45492
#	67822
#	94242
#	125952
#	150530
#	180005
#	207320
#	233310
#	260860
#	277772
#	305630
#
# Disc length: 4363 seconds
#
# Revision: 0
# Processed by: cddbd v1.5.1PL0 Copyright (c) Steve Scherf et al.
# Submitted via: CDex 1.51
#
DISCID=a511090d
DTITLE=The Loop - Had A Good Time
DYEAR=2004
DGENRE=Blues
TTITLE0=Had A Good Time
TTITLE1=Things Will Come And Things Will Go
TTITLE2=Let Me Out
TTITLE3=The Rain Is Pouring Down On Me
TTITLE4=Bounce Blues
TTITLE5=Is There Somebody
TTITLE6=Sweet Little Baby
TTITLE7=Leave You Today
TTITLE8=You
TTITLE9=Cold Days Long Nights
TTITLE10=Watch Out
TTITLE11=Let's Go To Work
TTITLE12=Farewell Blues
EXTD=YEAR: 2004
EXTT0=
EXTT1=
EXTT2=
EXTT3=
EXTT4=
EXTT5=
EXTT6=
EXTT7=
EXTT8=
EXTT9=
EXTT10=
EXTT11=
EXTT12=
PLAYORDER=
